<svg width="200" height="200" viewBox="0 0 200 200" fill="none" xmlns="http://www.w3.org/2000/svg">
<g clip-path="url(#clip0_3218_2)">
<mask id="mask0_3218_2" style="mask-type:luminance" maskUnits="userSpaceOnUse" x="0" y="0" width="200" height="200">
<path d="M200 0H0V200H200V0Z" fill="white"/>
</mask>
<g mask="url(#mask0_3218_2)">
<path d="M114.862 101.622L100.417 116.555L85.9714 101.622C83.088 98.6414 83.2037 94.0583 86.2343 91.2113C89.6186 88.0303 95.1937 88.3196 98.1829 91.8329L100.218 94.0633L103.242 91.2113C103.51 90.9567 103.794 90.7252 104.09 90.5152C107.202 88.3097 111.702 88.4882 114.599 91.2113C117.629 94.0583 117.745 98.6414 114.862 101.622Z" stroke="#DB3A5C" stroke-width="1.65333" stroke-linecap="round" stroke-linejoin="round"/>
<path d="M114.862 101.622L100.417 116.555L85.9714 101.622C83.088 98.6414 83.2037 94.0583 86.2343 91.2113C89.6186 88.0303 95.1937 88.3196 98.1829 91.8329L100.218 94.0633L103.242 91.2113C103.51 90.9567 103.794 90.7252 104.09 90.5152C107.202 88.3097 111.702 88.4882 114.599 91.2113C117.629 94.0583 117.745 98.6414 114.862 101.622Z" fill="#DB3A5C"/>
<path d="M114.862 101.622L100.417 116.555L85.9714 101.622C83.088 98.6414 83.2037 94.0583 86.2343 91.2113C89.6186 88.0303 95.1937 88.3196 98.1829 91.8329L100.218 94.0633L103.242 91.2113C103.51 90.9567 103.794 90.7252 104.09 90.5152C107.202 88.3097 111.702 88.4882 114.599 91.2113C117.629 94.0583 117.745 98.6414 114.862 101.622Z" stroke="#DB3A5C" stroke-width="1.65333" stroke-linecap="round" stroke-linejoin="round"/>
</g>
</g>
<defs>
<clipPath id="clip0_3218_2">
<rect width="200" height="200" fill="white"/>
</clipPath>
</defs>
</svg>
